# xmcd CD database file
#
# Track frame offsets:
#	150
#	37212
#	65690
#	102580
#	131250
#	158400
#	183832
#	206025
#
# Disc length: 3050 seconds
#
# Revision: 0
# Processed by: cddbd v1.5.1PL0 Copyright (c) Steve Scherf et al.
# Submitted via: CDex 1.60beta1
#
DISCID=6d0be808
DTITLE=Willis Jackson and Pat Martino - Willis...With Pat
DYEAR=0
DGENRE=Jazz
TTITLE0=Bolita
TTITLE1=Single Action
TTITLE2=Blue Velvet
TTITLE3=Miss Ann
TTITLE4=Gator Whale
TTITLE5=My One And Only Love
TTITLE6=The Breeze And I
TTITLE7=The Goose Is Loose
EXTD=YEAR: 0
EXTT0=
EXTT1=
EXTT2=
EXTT3=
EXTT4=
EXTT5=
EXTT6=
EXTT7=
PLAYORDER=
